%TF.GenerationSoftware,KiCad,Pcbnew,8.0.8*%
%TF.CreationDate,2025-07-02T05:08:30+01:00*%
%TF.ProjectId,Solder,536f6c64-6572-42e6-9b69-6361645f7063,rev?*%
%TF.SameCoordinates,Original*%
%TF.FileFunction,Soldermask,Bot*%
%TF.FilePolarity,Negative*%
%FSLAX46Y46*%
G04 Gerber Fmt 4.6, Leading zero omitted, Abs format (unit mm)*
G04 Created by KiCad (PCBNEW 8.0.8) date 2025-07-02 05:08:30*
%MOMM*%
%LPD*%
G01*
G04 APERTURE LIST*
G04 Aperture macros list*
%AMRoundRect*
0 Rectangle with rounded corners*
0 $1 Rounding radius*
0 $2 $3 $4 $5 $6 $7 $8 $9 X,Y pos of 4 corners*
0 Add a 4 corners polygon primitive as box body*
4,1,4,$2,$3,$4,$5,$6,$7,$8,$9,$2,$3,0*
0 Add four circle primitives for the rounded corners*
1,1,$1+$1,$2,$3*
1,1,$1+$1,$4,$5*
1,1,$1+$1,$6,$7*
1,1,$1+$1,$8,$9*
0 Add four rect primitives between the rounded corners*
20,1,$1+$1,$2,$3,$4,$5,0*
20,1,$1+$1,$4,$5,$6,$7,0*
20,1,$1+$1,$6,$7,$8,$9,0*
20,1,$1+$1,$8,$9,$2,$3,0*%
G04 Aperture macros list end*
%ADD10C,2.000000*%
%ADD11C,1.440000*%
%ADD12C,1.600000*%
%ADD13O,1.600000X1.600000*%
%ADD14C,1.500000*%
%ADD15R,1.100000X1.800000*%
%ADD16RoundRect,0.275000X-0.275000X-0.625000X0.275000X-0.625000X0.275000X0.625000X-0.275000X0.625000X0*%
%ADD17R,1.700000X1.700000*%
%ADD18O,1.700000X1.700000*%
%ADD19R,1.800000X1.800000*%
%ADD20C,1.800000*%
G04 APERTURE END LIST*
D10*
%TO.C,SW8*%
X137750000Y-117250000D03*
X144250000Y-117250000D03*
X137750000Y-121750000D03*
X144250000Y-121750000D03*
%TD*%
%TO.C,SW7*%
X124500000Y-117000000D03*
X131000000Y-117000000D03*
X124500000Y-121500000D03*
X131000000Y-121500000D03*
%TD*%
%TO.C,SW6*%
X137500000Y-105500000D03*
X144000000Y-105500000D03*
X137500000Y-110000000D03*
X144000000Y-110000000D03*
%TD*%
%TO.C,SW5*%
X124500000Y-105500000D03*
X131000000Y-105500000D03*
X124500000Y-110000000D03*
X131000000Y-110000000D03*
%TD*%
%TO.C,SW4*%
X121250000Y-76250000D03*
X127750000Y-76250000D03*
X121250000Y-80750000D03*
X127750000Y-80750000D03*
%TD*%
%TO.C,SW3*%
X121500000Y-64000000D03*
X128000000Y-64000000D03*
X121500000Y-68500000D03*
X128000000Y-68500000D03*
%TD*%
%TO.C,SW2*%
X40750000Y-118750000D03*
X47250000Y-118750000D03*
X40750000Y-123250000D03*
X47250000Y-123250000D03*
%TD*%
%TO.C,SW1*%
X39000000Y-59500000D03*
X45500000Y-59500000D03*
X39000000Y-64000000D03*
X45500000Y-64000000D03*
%TD*%
D11*
%TO.C,RV2*%
X99000000Y-125000000D03*
X101540000Y-122460000D03*
X99000000Y-119920000D03*
%TD*%
%TO.C,RV1*%
X86960000Y-125540000D03*
X89500000Y-123000000D03*
X86960000Y-120460000D03*
%TD*%
D12*
%TO.C,R37*%
X146880000Y-90500000D03*
D13*
X154500000Y-90500000D03*
%TD*%
D12*
%TO.C,R36*%
X132690000Y-90500000D03*
D13*
X140310000Y-90500000D03*
%TD*%
D12*
%TO.C,R35*%
X135880000Y-79000000D03*
D13*
X143500000Y-79000000D03*
%TD*%
D12*
%TO.C,R34*%
X135690000Y-66500000D03*
D13*
X143310000Y-66500000D03*
%TD*%
D12*
%TO.C,R33*%
X100500000Y-110500000D03*
D13*
X108120000Y-110500000D03*
%TD*%
D12*
%TO.C,R32*%
X72690000Y-111500000D03*
D13*
X80310000Y-111500000D03*
%TD*%
D12*
%TO.C,R31*%
X59880000Y-111500000D03*
D13*
X67500000Y-111500000D03*
%TD*%
D12*
%TO.C,R30*%
X83380000Y-103000000D03*
D13*
X91000000Y-103000000D03*
%TD*%
D12*
%TO.C,R29*%
X71500000Y-103000000D03*
D13*
X79120000Y-103000000D03*
%TD*%
D12*
%TO.C,R28*%
X83380000Y-87000000D03*
D13*
X91000000Y-87000000D03*
%TD*%
D12*
%TO.C,R27*%
X71380000Y-87000000D03*
D13*
X79000000Y-87000000D03*
%TD*%
D12*
%TO.C,R26*%
X83190000Y-71000000D03*
D13*
X90810000Y-71000000D03*
%TD*%
D12*
%TO.C,R25*%
X71690000Y-71000000D03*
D13*
X79310000Y-71000000D03*
%TD*%
D12*
%TO.C,R24*%
X40690000Y-107000000D03*
D13*
X48310000Y-107000000D03*
%TD*%
D12*
%TO.C,R23*%
X102880000Y-95500000D03*
D13*
X110500000Y-95500000D03*
%TD*%
D12*
%TO.C,R22*%
X52380000Y-95000000D03*
D13*
X60000000Y-95000000D03*
%TD*%
D12*
%TO.C,R21*%
X102880000Y-80000000D03*
D13*
X110500000Y-80000000D03*
%TD*%
D12*
%TO.C,R20*%
X52190000Y-79000000D03*
D13*
X59810000Y-79000000D03*
%TD*%
D12*
%TO.C,R19*%
X103190000Y-62500000D03*
D13*
X110810000Y-62500000D03*
%TD*%
D12*
%TO.C,R18*%
X51880000Y-62500000D03*
D13*
X59500000Y-62500000D03*
%TD*%
D14*
%TO.C,R7*%
X92100000Y-110000000D03*
X95500000Y-110000000D03*
%TD*%
D15*
%TO.C,Q17*%
X150960000Y-79900000D03*
D16*
X152230000Y-77830000D03*
X153500000Y-79900000D03*
%TD*%
D15*
%TO.C,Q16*%
X151230000Y-67170000D03*
D16*
X152500000Y-65100000D03*
X153770000Y-67170000D03*
%TD*%
D15*
%TO.C,Q15*%
X62960000Y-121400000D03*
D16*
X64230000Y-119330000D03*
X65500000Y-121400000D03*
%TD*%
D15*
%TO.C,Q14*%
X94730000Y-96670000D03*
D16*
X96000000Y-94600000D03*
X97270000Y-96670000D03*
%TD*%
D15*
%TO.C,Q13*%
X65230000Y-96170000D03*
D16*
X66500000Y-94100000D03*
X67770000Y-96170000D03*
%TD*%
D15*
%TO.C,Q12*%
X95230000Y-80670000D03*
D16*
X96500000Y-78600000D03*
X97770000Y-80670000D03*
%TD*%
D15*
%TO.C,Q11*%
X64730000Y-80170000D03*
D16*
X66000000Y-78100000D03*
X67270000Y-80170000D03*
%TD*%
D15*
%TO.C,Q10*%
X95230000Y-63670000D03*
D16*
X96500000Y-61600000D03*
X97770000Y-63670000D03*
%TD*%
D15*
%TO.C,Q9*%
X64730000Y-63670000D03*
D16*
X66000000Y-61600000D03*
X67270000Y-63670000D03*
%TD*%
D17*
%TO.C,M1*%
X55500000Y-119225000D03*
D18*
X55500000Y-121765000D03*
%TD*%
D19*
%TO.C,D12*%
X85460000Y-95000000D03*
D20*
X88000000Y-95000000D03*
%TD*%
D19*
%TO.C,D11*%
X73960000Y-95000000D03*
D20*
X76500000Y-95000000D03*
%TD*%
D19*
%TO.C,D10*%
X85460000Y-79000000D03*
D20*
X88000000Y-79000000D03*
%TD*%
D19*
%TO.C,D9*%
X73960000Y-79000000D03*
D20*
X76500000Y-79000000D03*
%TD*%
D19*
%TO.C,D8*%
X85460000Y-62500000D03*
D20*
X88000000Y-62500000D03*
%TD*%
D19*
%TO.C,D7*%
X74500000Y-62500000D03*
D20*
X77040000Y-62500000D03*
%TD*%
M02*
