%TF.GenerationSoftware,KiCad,Pcbnew,8.0.8*%
%TF.CreationDate,2025-07-02T05:08:29+01:00*%
%TF.ProjectId,Solder,536f6c64-6572-42e6-9b69-6361645f7063,rev?*%
%TF.SameCoordinates,Original*%
%TF.FileFunction,Copper,L1,Top*%
%TF.FilePolarity,Positive*%
%FSLAX46Y46*%
G04 Gerber Fmt 4.6, Leading zero omitted, Abs format (unit mm)*
G04 Created by KiCad (PCBNEW 8.0.8) date 2025-07-02 05:08:29*
%MOMM*%
%LPD*%
G01*
G04 APERTURE LIST*
G04 Aperture macros list*
%AMRoundRect*
0 Rectangle with rounded corners*
0 $1 Rounding radius*
0 $2 $3 $4 $5 $6 $7 $8 $9 X,Y pos of 4 corners*
0 Add a 4 corners polygon primitive as box body*
4,1,4,$2,$3,$4,$5,$6,$7,$8,$9,$2,$3,0*
0 Add four circle primitives for the rounded corners*
1,1,$1+$1,$2,$3*
1,1,$1+$1,$4,$5*
1,1,$1+$1,$6,$7*
1,1,$1+$1,$8,$9*
0 Add four rect primitives between the rounded corners*
20,1,$1+$1,$2,$3,$4,$5,0*
20,1,$1+$1,$4,$5,$6,$7,0*
20,1,$1+$1,$6,$7,$8,$9,0*
20,1,$1+$1,$8,$9,$2,$3,0*%
G04 Aperture macros list end*
%TA.AperFunction,SMDPad,CuDef*%
%ADD10R,1.270000X5.080000*%
%TD*%
%TA.AperFunction,SMDPad,CuDef*%
%ADD11C,17.800000*%
%TD*%
%TA.AperFunction,ComponentPad*%
%ADD12C,2.000000*%
%TD*%
%TA.AperFunction,ComponentPad*%
%ADD13C,1.440000*%
%TD*%
%TA.AperFunction,ComponentPad*%
%ADD14C,1.600000*%
%TD*%
%TA.AperFunction,ComponentPad*%
%ADD15O,1.600000X1.600000*%
%TD*%
%TA.AperFunction,ComponentPad*%
%ADD16C,1.500000*%
%TD*%
%TA.AperFunction,ComponentPad*%
%ADD17R,1.100000X1.800000*%
%TD*%
%TA.AperFunction,ComponentPad*%
%ADD18RoundRect,0.275000X-0.275000X-0.625000X0.275000X-0.625000X0.275000X0.625000X-0.275000X0.625000X0*%
%TD*%
%TA.AperFunction,ComponentPad*%
%ADD19R,1.700000X1.700000*%
%TD*%
%TA.AperFunction,ComponentPad*%
%ADD20O,1.700000X1.700000*%
%TD*%
%TA.AperFunction,ComponentPad*%
%ADD21R,1.800000X1.800000*%
%TD*%
%TA.AperFunction,ComponentPad*%
%ADD22C,1.800000*%
%TD*%
%TA.AperFunction,ViaPad*%
%ADD23C,0.600000*%
%TD*%
%TA.AperFunction,Conductor*%
%ADD24C,0.200000*%
%TD*%
G04 APERTURE END LIST*
D10*
%TO.P,BT1,1,+*%
%TO.N,+5V*%
X22515000Y-83000000D03*
X44485000Y-83000000D03*
D11*
%TO.P,BT1,2,-*%
%TO.N,GND*%
X33500000Y-83000000D03*
%TD*%
D12*
%TO.P,SW8,1,1*%
%TO.N,unconnected-(SW8-Pad1)*%
X137750000Y-117250000D03*
X144250000Y-117250000D03*
%TO.P,SW8,2,2*%
%TO.N,unconnected-(SW8-Pad2)*%
X137750000Y-121750000D03*
X144250000Y-121750000D03*
%TD*%
%TO.P,SW7,1,1*%
%TO.N,unconnected-(SW7-Pad1)*%
X124500000Y-117000000D03*
X131000000Y-117000000D03*
%TO.P,SW7,2,2*%
%TO.N,unconnected-(SW7-Pad2)*%
X124500000Y-121500000D03*
X131000000Y-121500000D03*
%TD*%
%TO.P,SW6,1,1*%
%TO.N,unconnected-(SW6-Pad1)*%
X137500000Y-105500000D03*
X144000000Y-105500000D03*
%TO.P,SW6,2,2*%
%TO.N,unconnected-(SW6-Pad2)*%
X137500000Y-110000000D03*
X144000000Y-110000000D03*
%TD*%
%TO.P,SW5,1,1*%
%TO.N,unconnected-(SW5-Pad1)*%
X124500000Y-105500000D03*
X131000000Y-105500000D03*
%TO.P,SW5,2,2*%
%TO.N,unconnected-(SW5-Pad2)*%
X124500000Y-110000000D03*
X131000000Y-110000000D03*
%TD*%
%TO.P,SW4,1,1*%
%TO.N,+5V*%
X121250000Y-76250000D03*
X127750000Y-76250000D03*
%TO.P,SW4,2,2*%
%TO.N,Net-(R35-Pad1)*%
X121250000Y-80750000D03*
X127750000Y-80750000D03*
%TD*%
%TO.P,SW3,1,1*%
%TO.N,+5V*%
X121500000Y-64000000D03*
X128000000Y-64000000D03*
%TO.P,SW3,2,2*%
%TO.N,Net-(R34-Pad1)*%
X121500000Y-68500000D03*
X128000000Y-68500000D03*
%TD*%
%TO.P,SW2,1,1*%
%TO.N,+5V*%
X40750000Y-118750000D03*
X47250000Y-118750000D03*
%TO.P,SW2,2,2*%
%TO.N,Net-(R31-Pad1)*%
X40750000Y-123250000D03*
X47250000Y-123250000D03*
%TD*%
%TO.P,SW1,1,1*%
%TO.N,+5V*%
X39000000Y-59500000D03*
X45500000Y-59500000D03*
%TO.P,SW1,2,2*%
%TO.N,Net-(Q17-C)*%
X39000000Y-64000000D03*
X45500000Y-64000000D03*
%TD*%
D13*
%TO.P,RV2,1,1*%
%TO.N,GND*%
X99000000Y-125000000D03*
%TO.P,RV2,2,2*%
%TO.N,+5V*%
X101540000Y-122460000D03*
%TO.P,RV2,3,3*%
X99000000Y-119920000D03*
%TD*%
%TO.P,RV1,1,1*%
%TO.N,GND*%
X86960000Y-125540000D03*
%TO.P,RV1,2,2*%
%TO.N,+5V*%
X89500000Y-123000000D03*
%TO.P,RV1,3,3*%
X86960000Y-120460000D03*
%TD*%
D14*
%TO.P,R37,1*%
%TO.N,GND*%
X146880000Y-90500000D03*
D15*
%TO.P,R37,2*%
%TO.N,Net-(Q16-B)*%
X154500000Y-90500000D03*
%TD*%
D14*
%TO.P,R36,1*%
%TO.N,GND*%
X132690000Y-90500000D03*
D15*
%TO.P,R36,2*%
%TO.N,Net-(Q17-B)*%
X140310000Y-90500000D03*
%TD*%
D14*
%TO.P,R35,1*%
%TO.N,Net-(R35-Pad1)*%
X135880000Y-79000000D03*
D15*
%TO.P,R35,2*%
%TO.N,Net-(Q17-B)*%
X143500000Y-79000000D03*
%TD*%
D14*
%TO.P,R34,1*%
%TO.N,Net-(R34-Pad1)*%
X135690000Y-66500000D03*
D15*
%TO.P,R34,2*%
%TO.N,Net-(Q16-B)*%
X143310000Y-66500000D03*
%TD*%
D14*
%TO.P,R33,1*%
%TO.N,GND*%
X100500000Y-110500000D03*
D15*
%TO.P,R33,2*%
%TO.N,Net-(R31-Pad1)*%
X108120000Y-110500000D03*
%TD*%
D14*
%TO.P,R32,1*%
%TO.N,GND*%
X72690000Y-111500000D03*
D15*
%TO.P,R32,2*%
%TO.N,Net-(Q15-B)*%
X80310000Y-111500000D03*
%TD*%
D14*
%TO.P,R31,1*%
%TO.N,Net-(R31-Pad1)*%
X59880000Y-111500000D03*
D15*
%TO.P,R31,2*%
%TO.N,Net-(Q15-B)*%
X67500000Y-111500000D03*
%TD*%
D14*
%TO.P,R30,1*%
%TO.N,Net-(D12-A)*%
X83380000Y-103000000D03*
D15*
%TO.P,R30,2*%
%TO.N,+5V*%
X91000000Y-103000000D03*
%TD*%
D14*
%TO.P,R29,1*%
%TO.N,Net-(D11-A)*%
X71500000Y-103000000D03*
D15*
%TO.P,R29,2*%
%TO.N,+5V*%
X79120000Y-103000000D03*
%TD*%
D14*
%TO.P,R28,1*%
%TO.N,Net-(D10-A)*%
X83380000Y-87000000D03*
D15*
%TO.P,R28,2*%
%TO.N,+5V*%
X91000000Y-87000000D03*
%TD*%
D14*
%TO.P,R27,1*%
%TO.N,Net-(D9-A)*%
X71380000Y-87000000D03*
D15*
%TO.P,R27,2*%
%TO.N,+5V*%
X79000000Y-87000000D03*
%TD*%
D14*
%TO.P,R26,1*%
%TO.N,Net-(D8-A)*%
X83190000Y-71000000D03*
D15*
%TO.P,R26,2*%
%TO.N,+5V*%
X90810000Y-71000000D03*
%TD*%
D14*
%TO.P,R25,1*%
%TO.N,Net-(D7-A)*%
X71690000Y-71000000D03*
D15*
%TO.P,R25,2*%
%TO.N,+5V*%
X79310000Y-71000000D03*
%TD*%
D14*
%TO.P,R24,1*%
%TO.N,Net-(Q17-C)*%
X40690000Y-107000000D03*
D15*
%TO.P,R24,2*%
%TO.N,GND*%
X48310000Y-107000000D03*
%TD*%
D14*
%TO.P,R23,1*%
%TO.N,Net-(Q17-C)*%
X102880000Y-95500000D03*
D15*
%TO.P,R23,2*%
%TO.N,Net-(Q14-B)*%
X110500000Y-95500000D03*
%TD*%
D14*
%TO.P,R22,1*%
%TO.N,Net-(Q17-C)*%
X52380000Y-95000000D03*
D15*
%TO.P,R22,2*%
%TO.N,Net-(Q13-B)*%
X60000000Y-95000000D03*
%TD*%
D14*
%TO.P,R21,1*%
%TO.N,Net-(Q17-C)*%
X102880000Y-80000000D03*
D15*
%TO.P,R21,2*%
%TO.N,Net-(Q12-B)*%
X110500000Y-80000000D03*
%TD*%
D14*
%TO.P,R20,1*%
%TO.N,Net-(Q17-C)*%
X52190000Y-79000000D03*
D15*
%TO.P,R20,2*%
%TO.N,Net-(Q11-B)*%
X59810000Y-79000000D03*
%TD*%
D14*
%TO.P,R19,1*%
%TO.N,Net-(Q17-C)*%
X103190000Y-62500000D03*
D15*
%TO.P,R19,2*%
%TO.N,Net-(Q10-B)*%
X110810000Y-62500000D03*
%TD*%
D14*
%TO.P,R18,1*%
%TO.N,Net-(Q17-C)*%
X51880000Y-62500000D03*
D15*
%TO.P,R18,2*%
%TO.N,Net-(Q9-B)*%
X59500000Y-62500000D03*
%TD*%
D16*
%TO.P,R7,1*%
%TO.N,Net-(R31-Pad1)*%
X92100000Y-110000000D03*
%TO.P,R7,2*%
%TO.N,+5V*%
X95500000Y-110000000D03*
%TD*%
D17*
%TO.P,Q17,1,C*%
%TO.N,Net-(Q17-C)*%
X150960000Y-79900000D03*
D18*
%TO.P,Q17,2,B*%
%TO.N,Net-(Q17-B)*%
X152230000Y-77830000D03*
%TO.P,Q17,3,E*%
%TO.N,Net-(Q16-C)*%
X153500000Y-79900000D03*
%TD*%
D17*
%TO.P,Q16,1,C*%
%TO.N,Net-(Q16-C)*%
X151230000Y-67170000D03*
D18*
%TO.P,Q16,2,B*%
%TO.N,Net-(Q16-B)*%
X152500000Y-65100000D03*
%TO.P,Q16,3,E*%
%TO.N,GND*%
X153770000Y-67170000D03*
%TD*%
D17*
%TO.P,Q15,1,C*%
%TO.N,Net-(M1--)*%
X62960000Y-121400000D03*
D18*
%TO.P,Q15,2,B*%
%TO.N,Net-(Q15-B)*%
X64230000Y-119330000D03*
%TO.P,Q15,3,E*%
%TO.N,GND*%
X65500000Y-121400000D03*
%TD*%
D17*
%TO.P,Q14,1,C*%
%TO.N,Net-(D12-K)*%
X94730000Y-96670000D03*
D18*
%TO.P,Q14,2,B*%
%TO.N,Net-(Q14-B)*%
X96000000Y-94600000D03*
%TO.P,Q14,3,E*%
%TO.N,GND*%
X97270000Y-96670000D03*
%TD*%
D17*
%TO.P,Q13,1,C*%
%TO.N,Net-(D11-K)*%
X65230000Y-96170000D03*
D18*
%TO.P,Q13,2,B*%
%TO.N,Net-(Q13-B)*%
X66500000Y-94100000D03*
%TO.P,Q13,3,E*%
%TO.N,GND*%
X67770000Y-96170000D03*
%TD*%
D17*
%TO.P,Q12,1,C*%
%TO.N,Net-(D10-K)*%
X95230000Y-80670000D03*
D18*
%TO.P,Q12,2,B*%
%TO.N,Net-(Q12-B)*%
X96500000Y-78600000D03*
%TO.P,Q12,3,E*%
%TO.N,GND*%
X97770000Y-80670000D03*
%TD*%
D17*
%TO.P,Q11,1,C*%
%TO.N,Net-(D9-K)*%
X64730000Y-80170000D03*
D18*
%TO.P,Q11,2,B*%
%TO.N,Net-(Q11-B)*%
X66000000Y-78100000D03*
%TO.P,Q11,3,E*%
%TO.N,GND*%
X67270000Y-80170000D03*
%TD*%
D17*
%TO.P,Q10,1,C*%
%TO.N,Net-(D8-K)*%
X95230000Y-63670000D03*
D18*
%TO.P,Q10,2,B*%
%TO.N,Net-(Q10-B)*%
X96500000Y-61600000D03*
%TO.P,Q10,3,E*%
%TO.N,GND*%
X97770000Y-63670000D03*
%TD*%
D17*
%TO.P,Q9,1,C*%
%TO.N,Net-(D7-K)*%
X64730000Y-63670000D03*
D18*
%TO.P,Q9,2,B*%
%TO.N,Net-(Q9-B)*%
X66000000Y-61600000D03*
%TO.P,Q9,3,E*%
%TO.N,GND*%
X67270000Y-63670000D03*
%TD*%
D19*
%TO.P,M1,1,+*%
%TO.N,+5V*%
X55500000Y-119225000D03*
D20*
%TO.P,M1,2,-*%
%TO.N,Net-(M1--)*%
X55500000Y-121765000D03*
%TD*%
D21*
%TO.P,D12,1,K*%
%TO.N,Net-(D12-K)*%
X85460000Y-95000000D03*
D22*
%TO.P,D12,2,A*%
%TO.N,Net-(D12-A)*%
X88000000Y-95000000D03*
%TD*%
D21*
%TO.P,D11,1,K*%
%TO.N,Net-(D11-K)*%
X73960000Y-95000000D03*
D22*
%TO.P,D11,2,A*%
%TO.N,Net-(D11-A)*%
X76500000Y-95000000D03*
%TD*%
D21*
%TO.P,D10,1,K*%
%TO.N,Net-(D10-K)*%
X85460000Y-79000000D03*
D22*
%TO.P,D10,2,A*%
%TO.N,Net-(D10-A)*%
X88000000Y-79000000D03*
%TD*%
D21*
%TO.P,D9,1,K*%
%TO.N,Net-(D9-K)*%
X73960000Y-79000000D03*
D22*
%TO.P,D9,2,A*%
%TO.N,Net-(D9-A)*%
X76500000Y-79000000D03*
%TD*%
D21*
%TO.P,D8,1,K*%
%TO.N,Net-(D8-K)*%
X85460000Y-62500000D03*
D22*
%TO.P,D8,2,A*%
%TO.N,Net-(D8-A)*%
X88000000Y-62500000D03*
%TD*%
D21*
%TO.P,D7,1,K*%
%TO.N,Net-(D7-K)*%
X74500000Y-62500000D03*
D22*
%TO.P,D7,2,A*%
%TO.N,Net-(D7-A)*%
X77040000Y-62500000D03*
%TD*%
D23*
%TO.N,Net-(Q12-B)*%
X110000000Y-78000000D03*
X97000000Y-75500000D03*
%TO.N,Net-(D10-K)*%
X93000000Y-81000000D03*
X90000000Y-77500000D03*
%TO.N,Net-(D9-K)*%
X65000000Y-82500000D03*
X68500000Y-83000000D03*
%TO.N,+5V*%
X50500000Y-116000000D03*
X68000000Y-105500000D03*
X49000000Y-96000000D03*
%TO.N,Net-(D11-K)*%
X71500000Y-96000000D03*
X63000000Y-97000000D03*
%TO.N,+5V*%
X91500000Y-101000000D03*
X93000000Y-93500000D03*
X93500000Y-71000000D03*
X104000000Y-73500000D03*
%TO.N,Net-(Q17-C)*%
X142000000Y-82500000D03*
X104500000Y-83500000D03*
%TO.N,Net-(R31-Pad1)*%
X93500000Y-109000000D03*
X102000000Y-107000000D03*
%TO.N,Net-(Q17-C)*%
X100500000Y-95500000D03*
X53500000Y-93000000D03*
%TO.N,Net-(Q14-B)*%
X110000000Y-93000000D03*
X96500000Y-92000000D03*
%TO.N,+5V*%
X102500000Y-121000000D03*
X99500000Y-122000000D03*
%TO.N,Net-(R31-Pad1)*%
X89500000Y-111500000D03*
X60000000Y-114000000D03*
%TO.N,+5V*%
X70500000Y-106000000D03*
X79500000Y-106000000D03*
%TO.N,Net-(Q15-B)*%
X80500000Y-114500000D03*
X70000000Y-114000000D03*
%TO.N,+5V*%
X53000000Y-120500000D03*
X51500000Y-119000000D03*
%TD*%
D24*
%TO.N,GND*%
X145780000Y-91600000D02*
X133790000Y-91600000D01*
X133790000Y-91600000D02*
X132690000Y-90500000D01*
X146880000Y-90500000D02*
X145780000Y-91600000D01*
%TO.N,Net-(Q10-B)*%
X97100000Y-61400000D02*
X109710000Y-61400000D01*
X96500000Y-62000000D02*
X97100000Y-61400000D01*
X109710000Y-61400000D02*
X110810000Y-62500000D01*
%TO.N,Net-(D8-A)*%
X83190000Y-67810000D02*
X83190000Y-71000000D01*
X88000000Y-63000000D02*
X83190000Y-67810000D01*
X88000000Y-62500000D02*
X88000000Y-63000000D01*
%TO.N,Net-(D8-K)*%
X93260000Y-61300000D02*
X95230000Y-63270000D01*
X86660000Y-61300000D02*
X93260000Y-61300000D01*
X85460000Y-62500000D02*
X86660000Y-61300000D01*
%TO.N,Net-(D7-K)*%
X58600000Y-63600000D02*
X64400000Y-63600000D01*
X64400000Y-63600000D02*
X64730000Y-63270000D01*
X58400000Y-62044365D02*
X58400000Y-63400000D01*
X58400000Y-63400000D02*
X58600000Y-63600000D01*
X72400000Y-60400000D02*
X60044365Y-60400000D01*
X74500000Y-62500000D02*
X72400000Y-60400000D01*
X60044365Y-60400000D02*
X58400000Y-62044365D01*
%TO.N,Net-(D7-A)*%
X71690000Y-67850000D02*
X77040000Y-62500000D01*
X71690000Y-71000000D02*
X71690000Y-67850000D01*
%TO.N,+5V*%
X80410000Y-72100000D02*
X79310000Y-71000000D01*
X89710000Y-72100000D02*
X80410000Y-72100000D01*
X90810000Y-71000000D02*
X89710000Y-72100000D01*
%TO.N,Net-(Q12-B)*%
X110500000Y-78500000D02*
X110500000Y-80000000D01*
X110000000Y-78000000D02*
X110500000Y-78500000D01*
X96500000Y-76000000D02*
X97000000Y-75500000D01*
X96500000Y-79000000D02*
X96500000Y-76000000D01*
%TO.N,Net-(D10-K)*%
X94500000Y-81000000D02*
X95230000Y-80270000D01*
X93000000Y-81000000D02*
X94500000Y-81000000D01*
X86960000Y-77500000D02*
X90000000Y-77500000D01*
X85460000Y-79000000D02*
X86960000Y-77500000D01*
%TO.N,Net-(Q11-B)*%
X60310000Y-78500000D02*
X66000000Y-78500000D01*
X59810000Y-79000000D02*
X60310000Y-78500000D01*
%TO.N,Net-(D9-K)*%
X64730000Y-82230000D02*
X64730000Y-79770000D01*
X65000000Y-82500000D02*
X64730000Y-82230000D01*
X72500000Y-79000000D02*
X68500000Y-83000000D01*
X73960000Y-79000000D02*
X72500000Y-79000000D01*
%TO.N,Net-(D9-A)*%
X71380000Y-84120000D02*
X76500000Y-79000000D01*
X71380000Y-87000000D02*
X71380000Y-84120000D01*
%TO.N,Net-(D10-A)*%
X83380000Y-83620000D02*
X88000000Y-79000000D01*
X83380000Y-87000000D02*
X83380000Y-83620000D01*
%TO.N,+5V*%
X89900000Y-88100000D02*
X91000000Y-87000000D01*
X79000000Y-87000000D02*
X80100000Y-88100000D01*
X80100000Y-88100000D02*
X89900000Y-88100000D01*
X50500000Y-116000000D02*
X50000000Y-116000000D01*
X50000000Y-116000000D02*
X47250000Y-118750000D01*
X70000000Y-105500000D02*
X70500000Y-106000000D01*
X68000000Y-105500000D02*
X70000000Y-105500000D01*
X44485000Y-91485000D02*
X49000000Y-96000000D01*
X44485000Y-83000000D02*
X44485000Y-91485000D01*
%TO.N,Net-(D11-K)*%
X72500000Y-95000000D02*
X73960000Y-95000000D01*
X71500000Y-96000000D02*
X72500000Y-95000000D01*
X64000000Y-97000000D02*
X63000000Y-97000000D01*
X65230000Y-95770000D02*
X64000000Y-97000000D01*
%TO.N,+5V*%
X91500000Y-102500000D02*
X91000000Y-103000000D01*
X91500000Y-101000000D02*
X91500000Y-102500000D01*
X91000000Y-91500000D02*
X93000000Y-93500000D01*
X91000000Y-87000000D02*
X91000000Y-91500000D01*
X90810000Y-86810000D02*
X91000000Y-87000000D01*
X90810000Y-71000000D02*
X90810000Y-86810000D01*
X93500000Y-71000000D02*
X90810000Y-71000000D01*
X118500000Y-73500000D02*
X104000000Y-73500000D01*
X121250000Y-76250000D02*
X118500000Y-73500000D01*
%TO.N,Net-(R35-Pad1)*%
X127750000Y-80750000D02*
X121250000Y-80750000D01*
X129500000Y-79000000D02*
X135880000Y-79000000D01*
X127750000Y-80750000D02*
X129500000Y-79000000D01*
%TO.N,+5V*%
X127750000Y-76250000D02*
X121250000Y-76250000D01*
X121500000Y-64000000D02*
X128000000Y-64000000D01*
X120200000Y-65300000D02*
X121500000Y-64000000D01*
X120200000Y-75200000D02*
X120200000Y-65300000D01*
X121250000Y-76250000D02*
X120200000Y-75200000D01*
%TO.N,Net-(R34-Pad1)*%
X128000000Y-68500000D02*
X121500000Y-68500000D01*
X130000000Y-66500000D02*
X128000000Y-68500000D01*
X135690000Y-66500000D02*
X130000000Y-66500000D01*
%TO.N,Net-(Q16-B)*%
X144310000Y-65500000D02*
X152500000Y-65500000D01*
X143310000Y-66500000D02*
X144310000Y-65500000D01*
X155299999Y-66299999D02*
X154500000Y-65500000D01*
X154500000Y-65500000D02*
X152500000Y-65500000D01*
X155299999Y-89700001D02*
X155299999Y-66299999D01*
X154500000Y-90500000D02*
X155299999Y-89700001D01*
%TO.N,GND*%
X154350000Y-83030000D02*
X146880000Y-90500000D01*
X154350000Y-67350000D02*
X154350000Y-83030000D01*
X153770000Y-66770000D02*
X154350000Y-67350000D01*
%TO.N,Net-(Q16-C)*%
X153500000Y-69040000D02*
X151230000Y-66770000D01*
X153500000Y-79500000D02*
X153500000Y-69040000D01*
%TO.N,Net-(Q17-C)*%
X102880000Y-81880000D02*
X102880000Y-80000000D01*
X104500000Y-83500000D02*
X102880000Y-81880000D01*
X147960000Y-82500000D02*
X142000000Y-82500000D01*
X150960000Y-79500000D02*
X147960000Y-82500000D01*
%TO.N,Net-(Q17-B)*%
X144270000Y-78230000D02*
X152230000Y-78230000D01*
X143500000Y-79000000D02*
X144270000Y-78230000D01*
X140310000Y-82190000D02*
X143500000Y-79000000D01*
X140310000Y-90500000D02*
X140310000Y-82190000D01*
%TO.N,GND*%
X110000000Y-90500000D02*
X100500000Y-100000000D01*
X132690000Y-90500000D02*
X110000000Y-90500000D01*
%TO.N,Net-(R31-Pad1)*%
X93100000Y-109000000D02*
X92100000Y-110000000D01*
X93500000Y-109000000D02*
X93100000Y-109000000D01*
X105500000Y-110500000D02*
X102000000Y-107000000D01*
X108120000Y-110500000D02*
X105500000Y-110500000D01*
%TO.N,+5V*%
X22515000Y-80974235D02*
X22515000Y-83000000D01*
X29689235Y-73800000D02*
X22515000Y-80974235D01*
X37310765Y-73800000D02*
X29689235Y-73800000D01*
X44485000Y-83000000D02*
X44485000Y-80974235D01*
X44485000Y-80974235D02*
X37310765Y-73800000D01*
X39000000Y-59500000D02*
X45500000Y-59500000D01*
X37700000Y-60800000D02*
X39000000Y-59500000D01*
X37700000Y-64538478D02*
X37700000Y-60800000D01*
X44485000Y-71323478D02*
X37700000Y-64538478D01*
X44485000Y-83000000D02*
X44485000Y-71323478D01*
%TO.N,Net-(Q17-C)*%
X52380000Y-94120000D02*
X52380000Y-95000000D01*
X53500000Y-93000000D02*
X52380000Y-94120000D01*
X102880000Y-95500000D02*
X100500000Y-95500000D01*
%TO.N,Net-(Q14-B)*%
X110000000Y-93000000D02*
X110500000Y-93500000D01*
X110500000Y-93500000D02*
X110500000Y-95500000D01*
X96500000Y-94500000D02*
X96500000Y-92000000D01*
X96000000Y-95000000D02*
X96500000Y-94500000D01*
%TO.N,Net-(D12-K)*%
X86660000Y-93800000D02*
X92260000Y-93800000D01*
X92260000Y-93800000D02*
X94730000Y-96270000D01*
X85460000Y-95000000D02*
X86660000Y-93800000D01*
%TO.N,Net-(D12-A)*%
X83380000Y-99620000D02*
X88000000Y-95000000D01*
X83380000Y-103000000D02*
X83380000Y-99620000D01*
%TO.N,+5V*%
X80220000Y-104100000D02*
X79120000Y-103000000D01*
X88900000Y-104100000D02*
X80220000Y-104100000D01*
X90000000Y-103000000D02*
X88900000Y-104100000D01*
X91000000Y-103000000D02*
X90000000Y-103000000D01*
X95500000Y-109500000D02*
X91000000Y-105000000D01*
X91000000Y-105000000D02*
X91000000Y-103000000D01*
X95500000Y-110000000D02*
X95500000Y-109500000D01*
X99000000Y-119920000D02*
X99000000Y-113500000D01*
X99000000Y-113500000D02*
X95500000Y-110000000D01*
X102500000Y-121000000D02*
X102500000Y-121500000D01*
X102500000Y-121500000D02*
X101540000Y-122460000D01*
X99000000Y-121500000D02*
X99500000Y-122000000D01*
X99000000Y-119920000D02*
X99000000Y-121500000D01*
X95920000Y-123000000D02*
X99000000Y-119920000D01*
X89500000Y-123000000D02*
X95920000Y-123000000D01*
X86960000Y-120460000D02*
X89500000Y-123000000D01*
%TO.N,Net-(R31-Pad1)*%
X91000000Y-110000000D02*
X92100000Y-110000000D01*
X89500000Y-111500000D02*
X91000000Y-110000000D01*
X59880000Y-113880000D02*
X60000000Y-114000000D01*
X59880000Y-111500000D02*
X59880000Y-113880000D01*
%TO.N,+5V*%
X79500000Y-103380000D02*
X79120000Y-103000000D01*
X79500000Y-106000000D02*
X79500000Y-103380000D01*
X57275000Y-119225000D02*
X70500000Y-106000000D01*
X55500000Y-119225000D02*
X57275000Y-119225000D01*
%TO.N,Net-(Q15-B)*%
X80310000Y-113310000D02*
X80310000Y-111500000D01*
X80500000Y-113500000D02*
X80310000Y-113310000D01*
X80500000Y-114500000D02*
X80500000Y-113500000D01*
X67500000Y-111500000D02*
X70000000Y-114000000D01*
X67500000Y-116460000D02*
X67500000Y-111500000D01*
X64230000Y-119730000D02*
X67500000Y-116460000D01*
%TO.N,Net-(M1--)*%
X55500000Y-121765000D02*
X62195000Y-121765000D01*
X62195000Y-121765000D02*
X62960000Y-121000000D01*
%TO.N,+5V*%
X54275000Y-119225000D02*
X55500000Y-119225000D01*
X53000000Y-120500000D02*
X54275000Y-119225000D01*
X48000000Y-119000000D02*
X51500000Y-119000000D01*
X47750000Y-118750000D02*
X48000000Y-119000000D01*
X47250000Y-118750000D02*
X47750000Y-118750000D01*
X40750000Y-118750000D02*
X47250000Y-118750000D01*
%TO.N,Net-(R31-Pad1)*%
X47250000Y-123250000D02*
X40750000Y-123250000D01*
X48130000Y-123250000D02*
X47250000Y-123250000D01*
X59880000Y-111500000D02*
X48130000Y-123250000D01*
%TO.N,Net-(D11-A)*%
X71500000Y-100000000D02*
X76500000Y-95000000D01*
X71500000Y-103000000D02*
X71500000Y-100000000D01*
%TO.N,GND*%
X67770000Y-101270000D02*
X67770000Y-95770000D01*
X72690000Y-106190000D02*
X67770000Y-101270000D01*
X72690000Y-111500000D02*
X72690000Y-106190000D01*
X72690000Y-113810000D02*
X65500000Y-121000000D01*
X72690000Y-111500000D02*
X72690000Y-113810000D01*
X72920000Y-111500000D02*
X72690000Y-111500000D01*
X86960000Y-125540000D02*
X72920000Y-111500000D01*
X98500000Y-125000000D02*
X97960000Y-125540000D01*
X99000000Y-125000000D02*
X98500000Y-125000000D01*
X97960000Y-125540000D02*
X86960000Y-125540000D01*
X100500000Y-123500000D02*
X99000000Y-125000000D01*
X100500000Y-110500000D02*
X100500000Y-123500000D01*
X100500000Y-100000000D02*
X100500000Y-110500000D01*
X97270000Y-96770000D02*
X100500000Y-100000000D01*
X97270000Y-96270000D02*
X97270000Y-96770000D01*
X97770000Y-95770000D02*
X97270000Y-96270000D01*
X97770000Y-80270000D02*
X97770000Y-95770000D01*
X97770000Y-63270000D02*
X97770000Y-80270000D01*
X67270000Y-79770000D02*
X67770000Y-80270000D01*
X67770000Y-80270000D02*
X67770000Y-95770000D01*
X67270000Y-63270000D02*
X67270000Y-79770000D01*
%TO.N,Net-(Q9-B)*%
X60000000Y-62000000D02*
X66000000Y-62000000D01*
X59500000Y-62500000D02*
X60000000Y-62000000D01*
%TO.N,Net-(Q13-B)*%
X60500000Y-94500000D02*
X66500000Y-94500000D01*
X60000000Y-95000000D02*
X60500000Y-94500000D01*
%TO.N,Net-(Q17-C)*%
X102880000Y-80000000D02*
X102880000Y-95500000D01*
X103190000Y-79690000D02*
X102880000Y-80000000D01*
X103190000Y-62500000D02*
X103190000Y-79690000D01*
%TO.N,GND*%
X56540000Y-107000000D02*
X67770000Y-95770000D01*
X48310000Y-107000000D02*
X56540000Y-107000000D01*
X33500000Y-101365635D02*
X33500000Y-83000000D01*
X47210000Y-108100000D02*
X40234365Y-108100000D01*
X48310000Y-107000000D02*
X47210000Y-108100000D01*
X40234365Y-108100000D02*
X33500000Y-101365635D01*
%TO.N,Net-(Q17-C)*%
X40690000Y-106690000D02*
X40690000Y-107000000D01*
X52380000Y-95000000D02*
X40690000Y-106690000D01*
X52190000Y-94810000D02*
X52380000Y-95000000D01*
X52190000Y-79000000D02*
X52190000Y-94810000D01*
X52190000Y-70690000D02*
X52190000Y-79000000D01*
X45500000Y-64000000D02*
X52190000Y-70690000D01*
X50380000Y-64000000D02*
X51880000Y-62500000D01*
X45500000Y-64000000D02*
X50380000Y-64000000D01*
X45500000Y-64000000D02*
X39000000Y-64000000D01*
%TD*%
M02*
