M48
; DRILL file {KiCad 8.0.8} date 2025-07-02T05:08:33+0100
; FORMAT={-:-/ absolute / metric / decimal}
; #@! TF.CreationDate,2025-07-02T05:08:33+01:00
; #@! TF.GenerationSoftware,Kicad,Pcbnew,8.0.8
; #@! TF.FileFunction,MixedPlating,1,2
FMAT,2
METRIC
; #@! TA.AperFunction,Plated,PTH,ViaDrill
T1C0.300
; #@! TA.AperFunction,Plated,PTH,ComponentDrill
T2C0.750
; #@! TA.AperFunction,Plated,PTH,ComponentDrill
T3C0.800
; #@! TA.AperFunction,Plated,PTH,ComponentDrill
T4C0.900
; #@! TA.AperFunction,Plated,PTH,ComponentDrill
T5C1.000
; #@! TA.AperFunction,Plated,PTH,ComponentDrill
T6C1.100
%
G90
G05
T1
X49.0Y-96.0
X50.5Y-116.0
X51.5Y-119.0
X53.0Y-120.5
X53.5Y-93.0
X60.0Y-114.0
X63.0Y-97.0
X65.0Y-82.5
X68.0Y-105.5
X68.5Y-83.0
X70.0Y-114.0
X70.5Y-106.0
X71.5Y-96.0
X79.5Y-106.0
X80.5Y-114.5
X89.5Y-111.5
X90.0Y-77.5
X91.5Y-101.0
X93.0Y-81.0
X93.0Y-93.5
X93.5Y-71.0
X93.5Y-109.0
X96.5Y-92.0
X97.0Y-75.5
X99.5Y-122.0
X100.5Y-95.5
X102.0Y-107.0
X102.5Y-121.0
X104.0Y-73.5
X104.5Y-83.5
X110.0Y-78.0
X110.0Y-93.0
X142.0Y-82.5
T2
X62.96Y-121.0
X64.23Y-119.73
X64.73Y-63.27
X64.73Y-79.77
X65.23Y-95.77
X65.5Y-121.0
X66.0Y-62.0
X66.0Y-78.5
X66.5Y-94.5
X67.27Y-63.27
X67.27Y-79.77
X67.77Y-95.77
X94.73Y-96.27
X95.23Y-63.27
X95.23Y-80.27
X96.0Y-95.0
X96.5Y-62.0
X96.5Y-79.0
X97.27Y-96.27
X97.77Y-63.27
X97.77Y-80.27
X150.96Y-79.5
X151.23Y-66.77
X152.23Y-78.23
X152.5Y-65.5
X153.5Y-79.5
X153.77Y-66.77
T3
X40.69Y-107.0
X48.31Y-107.0
X51.88Y-62.5
X52.19Y-79.0
X52.38Y-95.0
X59.5Y-62.5
X59.81Y-79.0
X59.88Y-111.5
X60.0Y-95.0
X67.5Y-111.5
X71.38Y-87.0
X71.5Y-103.0
X71.69Y-71.0
X72.69Y-111.5
X79.0Y-87.0
X79.12Y-103.0
X79.31Y-71.0
X80.31Y-111.5
X83.19Y-71.0
X83.38Y-87.0
X83.38Y-103.0
X86.96Y-120.46
X86.96Y-125.54
X89.5Y-123.0
X90.81Y-71.0
X91.0Y-87.0
X91.0Y-103.0
X92.1Y-110.0
X95.5Y-110.0
X99.0Y-119.92
X99.0Y-125.0
X100.5Y-110.5
X101.54Y-122.46
X102.88Y-80.0
X102.88Y-95.5
X103.19Y-62.5
X108.12Y-110.5
X110.5Y-80.0
X110.5Y-95.5
X110.81Y-62.5
X132.69Y-90.5
X135.69Y-66.5
X135.88Y-79.0
X140.31Y-90.5
X143.31Y-66.5
X143.5Y-79.0
X146.88Y-90.5
X154.5Y-90.5
T4
X73.96Y-79.0
X73.96Y-95.0
X74.5Y-62.5
X76.5Y-79.0
X76.5Y-95.0
X77.04Y-62.5
X85.46Y-62.5
X85.46Y-79.0
X85.46Y-95.0
X88.0Y-62.5
X88.0Y-79.0
X88.0Y-95.0
T5
X55.5Y-119.225
X55.5Y-121.765
T6
X39.0Y-59.5
X39.0Y-64.0
X40.75Y-118.75
X40.75Y-123.25
X45.5Y-59.5
X45.5Y-64.0
X47.25Y-118.75
X47.25Y-123.25
X121.25Y-76.25
X121.25Y-80.75
X121.5Y-64.0
X121.5Y-68.5
X124.5Y-105.5
X124.5Y-110.0
X124.5Y-117.0
X124.5Y-121.5
X127.75Y-76.25
X127.75Y-80.75
X128.0Y-64.0
X128.0Y-68.5
X131.0Y-105.5
X131.0Y-110.0
X131.0Y-117.0
X131.0Y-121.5
X137.5Y-105.5
X137.5Y-110.0
X137.75Y-117.25
X137.75Y-121.75
X144.0Y-105.5
X144.0Y-110.0
X144.25Y-117.25
X144.25Y-121.75
M30
